<?xml version="1.0" encoding="UTF-8"?>
<svg id="Layer_2" data-name="Layer 2" xmlns="http://www.w3.org/2000/svg" viewBox="0 0 614.67 250.07">
  <defs>
    <style>
      .cls-1 {
        fill: #fff;
        stroke: #020202;
        stroke-miterlimit: 10;
        stroke-width: 20px;
      }
    </style>
  </defs>
  <g id="Object">
    <g>
      <circle class="cls-1" cx="115.63" cy="125.04" r="105.63"/>
      <path class="cls-1" d="M565.42,174.04c7.86-6.68,14.75-12.52,19.68-16.67,2.45-2.1,4.42-3.76,5.78-4.91l1.55-1.32,.41-.34,.08-.05,.02-.04h.04l.02-.02c7.38-6.27,11.67-15.46,11.68-25.15,0-9.72-4.22-18.94-11.61-25.23L489,11.58c-2.76-2.36-6.94-2.04-9.33,.75l-34.28,40.22c-2.37,2.77-2.02,6.94,.77,9.3l35.97,30.68-213.82,.02c-1.77,0-3.48,.7-4.7,1.95-1.21,1.21-1.91,2.93-1.91,4.66v52.85c0,1.76,.7,3.44,1.92,4.68,1.21,1.23,2.91,1.92,4.68,1.92h213.25c-5.62,4.81-11.04,9.46-15.84,13.58-5.12,4.38-9.57,8.23-13.09,11.31-1.76,1.53-3.29,2.87-4.55,4-1.3,1.17-2.32,2.1-3.46,3.19-1.28,1.23-1.98,2.87-2.04,4.64-.02,1.76,.64,3.42,1.87,4.7l36.75,38.01c2.47,2.55,6.55,2.68,9.19,.28l1.72-1.57-.04,.04c3.87-3.43,12.39-10.82,22.62-19.58,15.41-13.22,35.01-29.87,50.72-43.2Z"/>
    </g>
  </g>
</svg>